<mxfile host="65bd71144e">
    <diagram id="-W_UN-UzCiLInug1lY1X" name="Page-1">
        <mxGraphModel dx="1119" dy="713" grid="1" gridSize="10" guides="1" tooltips="1" connect="1" arrows="1" fold="1" page="1" pageScale="1" pageWidth="850" pageHeight="1100" background="none" math="0" shadow="0">
            <root>
                <mxCell id="0"/>
                <mxCell id="1" parent="0"/>
                <mxCell id="Wts4mDTKxrVjN1gcDQAL-1" value="" style="whiteSpace=wrap;html=1;aspect=fixed;fontFamily=Times New Roman;" parent="1" vertex="1">
                    <mxGeometry x="80" y="320" width="120" height="120" as="geometry"/>
                </mxCell>
                <mxCell id="Wts4mDTKxrVjN1gcDQAL-6" value="&lt;h1&gt;Fib.Java&lt;/h1&gt;&lt;div style=&quot;&quot;&gt;Is entry file into the program.&lt;/div&gt;" style="text;html=1;strokeColor=none;fillColor=none;spacing=5;spacingTop=-20;whiteSpace=wrap;overflow=hidden;rounded=0;fontFamily=Times New Roman;fontColor=#FFFFFF;align=center;" parent="1" vertex="1">
                    <mxGeometry x="80" y="320" width="120" height="120" as="geometry"/>
                </mxCell>
                <mxCell id="Wts4mDTKxrVjN1gcDQAL-8" style="edgeStyle=orthogonalEdgeStyle;rounded=0;orthogonalLoop=1;jettySize=auto;html=1;exitX=0.5;exitY=1;exitDx=0;exitDy=0;fontFamily=Times New Roman;fontColor=#FFFFFF;" parent="1" source="Wts4mDTKxrVjN1gcDQAL-1" target="Wts4mDTKxrVjN1gcDQAL-1" edge="1">
                    <mxGeometry relative="1" as="geometry"/>
                </mxCell>
                <mxCell id="Wts4mDTKxrVjN1gcDQAL-33" value="" style="endArrow=classic;html=1;rounded=0;fontFamily=Times New Roman;fontColor=#FFFFFF;exitX=1;exitY=0.5;exitDx=0;exitDy=0;" parent="1" source="Wts4mDTKxrVjN1gcDQAL-6" edge="1">
                    <mxGeometry width="50" height="50" relative="1" as="geometry">
                        <mxPoint x="310" y="460" as="sourcePoint"/>
                        <mxPoint x="290" y="380" as="targetPoint"/>
                    </mxGeometry>
                </mxCell>
                <mxCell id="Wts4mDTKxrVjN1gcDQAL-56" style="edgeStyle=orthogonalEdgeStyle;rounded=0;orthogonalLoop=1;jettySize=auto;html=1;exitX=0.5;exitY=0;exitDx=0;exitDy=0;entryX=0.5;entryY=1;entryDx=0;entryDy=0;fontFamily=Times New Roman;fontColor=#FFFFFF;" parent="1" source="Wts4mDTKxrVjN1gcDQAL-42" target="Wts4mDTKxrVjN1gcDQAL-50" edge="1">
                    <mxGeometry relative="1" as="geometry"/>
                </mxCell>
                <mxCell id="Wts4mDTKxrVjN1gcDQAL-42" value="&lt;p style=&quot;margin:0px;margin-top:4px;text-align:center;&quot;&gt;&lt;b&gt;Fib&lt;/b&gt;&lt;/p&gt;&lt;hr size=&quot;1&quot;&gt;&lt;p style=&quot;margin:0px;margin-left:4px;&quot;&gt;+ main(): void&lt;/p&gt;" style="verticalAlign=top;align=left;overflow=fill;fontSize=12;fontFamily=Helvetica;html=1;fontColor=#FFFFFF;" parent="1" vertex="1">
                    <mxGeometry x="290" y="350" width="90" height="60" as="geometry"/>
                </mxCell>
                <mxCell id="Wts4mDTKxrVjN1gcDQAL-47" value="This is the Entrypoint into the program" style="whiteSpace=wrap;html=1;fontFamily=Times New Roman;fontColor=#FFFFFF;" parent="1" vertex="1">
                    <mxGeometry x="275" y="410" width="120" height="40" as="geometry"/>
                </mxCell>
                <mxCell id="Wts4mDTKxrVjN1gcDQAL-49" value="&lt;p style=&quot;margin:0px;margin-top:4px;text-align:center;&quot;&gt;&lt;b&gt;Fib&lt;/b&gt;&lt;/p&gt;&lt;hr size=&quot;1&quot;&gt;&lt;p style=&quot;margin:0px;margin-left:4px;&quot;&gt;+ userInput():int&lt;/p&gt;" style="verticalAlign=top;align=left;overflow=fill;fontSize=12;fontFamily=Helvetica;html=1;fontColor=#FFFFFF;" parent="1" vertex="1">
                    <mxGeometry x="285" y="130" width="100" height="60" as="geometry"/>
                </mxCell>
                <mxCell id="Wts4mDTKxrVjN1gcDQAL-58" style="edgeStyle=orthogonalEdgeStyle;rounded=0;orthogonalLoop=1;jettySize=auto;html=1;exitX=0.5;exitY=0;exitDx=0;exitDy=0;entryX=0.5;entryY=1;entryDx=0;entryDy=0;fontFamily=Times New Roman;fontColor=#FFFFFF;" parent="1" source="Wts4mDTKxrVjN1gcDQAL-50" target="Wts4mDTKxrVjN1gcDQAL-49" edge="1">
                    <mxGeometry relative="1" as="geometry"/>
                </mxCell>
                <mxCell id="Wts4mDTKxrVjN1gcDQAL-50" value="Creates a new Fib object" style="whiteSpace=wrap;html=1;aspect=fixed;fontFamily=Times New Roman;fontColor=#FFFFFF;" parent="1" vertex="1">
                    <mxGeometry x="295" y="220" width="80" height="80" as="geometry"/>
                </mxCell>
            </root>
        </mxGraphModel>
    </diagram>
</mxfile>